<?xml version="1.0" standalone="no"?><!DOCTYPE svg PUBLIC "-//W3C//DTD SVG 1.1//EN" "http://www.w3.org/Graphics/SVG/1.1/DTD/svg11.dtd"><svg class="icon" width="200px" height="200.00px" viewBox="0 0 1024 1024" version="1.1" xmlns="http://www.w3.org/2000/svg"><path d="M643.41333333 858.34666667l-151.46666666-45.12c-23.46666667-7.04-37.01333333-32-29.97333334-55.46666667l152.42666667-510.93333333c7.04-23.46666667 32-37.01333333 55.46666667-29.97333334l151.46666666 45.12c23.46666667 7.04 37.01333333 32 29.97333334 55.46666667l-152.42666667 510.93333333c-7.04 23.57333333-32 37.01333333-55.46666667 29.97333334z" fill="#FF4633" /><path d="M656.10666667 880c-6.18666667 0-12.26666667-0.85333333-18.34666667-2.66666667l-151.46666667-45.12c-16.42666667-4.90666667-29.97333333-15.89333333-38.08-31.04-8.21333333-15.14666667-10.02666667-32.53333333-5.12-48.96l152.42666667-510.93333333c10.13333333-33.92 45.97333333-53.33333333 80-43.2l151.46666667 45.12c16.42666667 4.90666667 29.97333333 15.89333333 38.08 31.04 8.21333333 15.14666667 10.02666667 32.53333333 5.12 48.96L717.76 834.13333333c-4.90666667 16.42666667-15.89333333 29.97333333-31.04 38.08-9.6 5.12-20.05333333 7.78666667-30.61333333 7.78666667z m0.96-645.33333333c-10.77333333 0-20.69333333 7.04-23.89333334 17.81333333l-152.42666666 510.93333333c-1.92 6.29333333-1.17333333 13.01333333 2.02666666 18.98666667 3.2 5.86666667 8.42666667 10.13333333 14.72 12.05333333l151.46666667 45.12c6.29333333 1.92 13.12 1.17333333 18.98666667-2.02666666s10.13333333-8.42666667 12.05333333-14.72l152.42666667-510.93333334c1.92-6.29333333 1.17333333-13.01333333-2.02666667-18.98666666-3.2-5.86666667-8.42666667-10.13333333-14.72-12.05333334l-151.46666667-45.12c-2.34666667-0.74666667-4.8-1.06666667-7.14666666-1.06666666z" fill="#840000" /><path d="M582.60053333 353.64906667l22.98666667-77.072 236.94186667 70.66453333-22.98666667 77.07306667z" fill="#FFAC33" /><path d="M832.64 448.74666667l-274.56-81.92 34.24-114.77333334 274.56 81.92-34.24 114.77333334zM606.93333333 340.37333333l199.25333334 59.41333334 11.73333333-39.36L618.66666667 301.01333333l-11.73333334 39.36z" fill="#840000" /><path d="M472.13333333 723.9456l22.9856-77.07306667 236.94293334 70.6656-22.98666667 77.072z" fill="#FFAC33" /><path d="M722.24 819.09333333l-274.56-81.92 34.24-114.77333333 274.56 81.92-34.24 114.77333333zM496.53333333 710.72L695.78666667 770.13333333l11.73333333-39.36-199.25333333-59.41333333-11.73333334 39.36z" fill="#840000" /><path d="M740.26666667 689.49333333L657.06666667 535.46666667l154.02666666-83.2z" fill="#FFAC33" /><path d="M740.26666667 709.22666667c-7.14666667 0-13.86666667-3.94666667-17.28-10.34666667l-83.30666667-154.02666667c-5.12-9.6-1.6-21.54666667 8-26.66666666l154.02666667-83.30666667c7.04-3.84 15.57333333-2.98666667 21.76 2.02666667 6.18666667 5.01333333 8.74666667 13.22666667 6.4 20.90666666l-70.72 237.22666667c-2.24 7.57333333-8.96 13.12-16.85333334 13.97333333-0.64 0.21333333-1.38666667 0.21333333-2.02666666 0.21333334z m-56.53333334-165.76l51.30666667 94.93333333L778.66666667 492.16l-94.93333334 51.30666667zM745.38666667 258.98666667c-1.81333333 0-3.73333333-0.32-5.65333334-0.85333334-10.45333333-3.09333333-16.32-14.08-13.22666666-24.42666666 17.81333333-59.73333333 80.85333333-93.86666667 140.58666666-76.05333334 10.45333333 3.09333333 16.32 14.08 13.22666667 24.42666667-3.09333333 10.45333333-14.08 16.32-24.42666667 13.22666667-38.93333333-11.62666667-80.10666667 10.66666667-91.73333333 49.6-2.45333333 8.64-10.34666667 14.08-18.77333333 14.08z" fill="#840000" /><path d="M601.28 958.50666667L448.64 999.46666667c-23.68 6.4-48.32-7.78666667-54.61333333-31.46666667L255.68 453.01333333c-6.4-23.68 7.78666667-48.32 31.46666667-54.61333333l152.64-40.96c23.68-6.4 48.32 7.78666667 54.61333333 31.46666667l138.34666667 514.88c6.4 23.78666667-7.78666667 48.32-31.46666667 54.72z" fill="#FF4633" /><path d="M437.01333333 1020.69333333c-11.09333333 0-22.18666667-2.88-32.10666666-8.64-14.93333333-8.64-25.6-22.4-29.97333334-38.93333333L236.69333333 458.13333333c-9.17333333-34.24 11.2-69.54666667 45.44-78.72l152.64-40.96c16.53333333-4.48 33.81333333-2.13333333 48.74666667 6.4 14.93333333 8.64 25.6 22.4 29.97333333 38.93333334L651.73333333 898.77333333c4.48 16.53333333 2.13333333 33.81333333-6.4 48.74666667-8.64 14.93333333-22.4 25.6-38.93333333 29.97333333l-152.64 40.96c-5.54666667 1.49333333-11.09333333 2.24-16.74666667 2.24z m14.29333334-645.12c-2.13333333 0-4.26666667 0.32-6.4 0.85333334L292.26666667 417.38666667c-6.4 1.70666667-11.73333333 5.86666667-15.04 11.62666666s-4.26666667 12.48-2.56 18.88l138.34666666 514.88c1.70666667 6.4 5.86666667 11.73333333 11.62666667 15.04s12.48 4.26666667 18.88 2.56l152.64-40.96c6.4-1.70666667 11.73333333-5.86666667 15.04-11.62666666s4.26666667-12.48 2.56-18.88L475.41333333 394.02666667c-1.70666667-6.4-5.86666667-11.73333333-11.62666666-15.04-3.84-2.24-8.10666667-3.41333333-12.48-3.41333334z" fill="#840000" /><path d="M263.78666667 483.06026667l238.79786666-64.13866667 20.86186667 77.6768-238.7968 64.13866667z" fill="#FFAC33" /><path d="M270.72 584.85333333l-31.04-115.73333333 276.8-74.34666667 31.04 115.73333334-276.8 74.34666666z m17.17333333-87.89333333l10.66666667 39.68 200.74666667-53.86666667-10.66666667-39.68-200.74666667 53.86666667z" fill="#840000" /><path d="M363.94453333 856.18986667l238.79786667-64.13866667 20.86293333 77.6768-238.79786666 64.13866667z" fill="#FFAC33" /><path d="M370.98666667 957.97333333l-31.04-115.62666666L616.64 768l31.04 115.73333333-276.69333333 74.24z m17.06666666-87.89333333l10.66666667 39.68L599.46666667 855.89333333l-10.66666667-39.68-200.74666667 53.86666667z" fill="#840000" /><path d="M360.32 397.54666667c-9.06666667 0-17.17333333-6.29333333-19.2-15.57333334L317.12 270.93333333c-2.24-10.66666667 4.48-21.12 15.04-23.36s21.12 4.48 23.36 15.04l23.89333333 111.14666667c2.24 10.66666667-4.48 21.12-15.04 23.36-1.28 0.21333333-2.66666667 0.42666667-4.05333333 0.42666667z" fill="#840000" /><path d="M412.16 561.92L328.53333333 707.09333333l145.06666667 83.73333334 85.22666667-147.30666667z" fill="#FFAC33" /><path d="M473.6 810.45333333c-3.30666667 0-6.72-0.85333333-9.81333333-2.66666666l-145.17333334-83.73333334c-9.38666667-5.44-12.69333333-17.49333333-7.25333333-26.88l83.73333333-145.17333333c5.33333333-9.28 17.17333333-12.58666667 26.56-7.36L568.32 626.13333333c4.58666667 2.56 8 6.82666667 9.38666667 11.94666667s0.74666667 10.56-1.92 15.04L490.66666667 800.64c-3.62666667 6.29333333-10.24 9.81333333-17.06666667 9.81333333zM355.30666667 699.94666667l111.14666666 64.10666666 65.38666667-112.96-112.21333333-62.4-64.32 111.25333334z" fill="#840000" /><path d="M501.01333333 212.69333333c-2.56 0-5.12-0.53333333-7.57333333-1.49333333l-85.54666667-35.52c-10.02666667-4.16-14.82666667-15.68-10.66666666-25.70666667 4.16-10.02666667 15.68-14.72 25.70666666-10.66666666l85.54666667 35.52c10.02666667 4.16 14.82666667 15.68 10.66666667 25.70666666-3.09333333 7.57333333-10.34666667 12.16-18.13333334 12.16z" fill="#840000" /><path d="M440.53333333 237.65333333c-2.56 0-5.12-0.53333333-7.57333333-1.49333333-10.02666667-4.16-14.82666667-15.68-10.66666667-25.70666667l35.52-85.54666666c4.16-10.02666667 15.68-14.72 25.70666667-10.66666667 10.02666667 4.16 14.82666667 15.68 10.66666667 25.70666667L458.66666667 225.49333333c-3.09333333 7.57333333-10.45333333 12.16-18.13333334 12.16z" fill="#840000" /><path d="M270.93333333 107.84c-9.92 0-18.45333333-7.46666667-19.52-17.6-1.17333333-10.77333333 6.72-20.48 17.49333334-21.65333333l117.86666666-12.48c10.77333333-1.17333333 20.48 6.72 21.65333334 17.49333333 1.17333333 10.77333333-6.72 20.48-17.49333334 21.65333333L273.06666667 107.73333333c-0.74666667 0.10666667-1.49333333 0.10666667-2.13333334 0.10666667z" fill="#840000" /><path d="M336.10666667 160.53333333c-9.92 0-18.45333333-7.46666667-19.52-17.6L304.10666667 25.06666667c-1.17333333-10.77333333 6.72-20.48 17.49333333-21.65333334s20.48 6.72 21.65333333 17.49333334l12.48 117.86666666c1.17333333 10.77333333-6.72 20.48-17.49333333 21.65333334-0.74666667 0.10666667-1.49333333 0.10666667-2.13333333 0.10666666z" fill="#840000" /></svg>